<?xml version="1.0" standalone="no"?>
<!DOCTYPE svg PUBLIC "-//W3C//DTD SVG 20010904//EN"
 "http://www.w3.org/TR/2001/REC-SVG-20010904/DTD/svg10.dtd">
<svg version="1.0" xmlns="http://www.w3.org/2000/svg"
 width="600.000000pt" height="600.000000pt" viewBox="0 0 600.000000 600.000000"
 preserveAspectRatio="xMidYMid meet">
<metadata>
Created by potrace 1.10, written by Peter Selinger 2001-2011
</metadata>
<g transform="translate(0.000000,600.000000) scale(0.100000,-0.100000)"
fill="#ff0000" stroke="none">
<path d="M1550 5252 c0 -47 -93 -260 -153 -351 -113 -171 -279 -316 -467 -406
-105 -51 -140 -65 -159 -65 -20 0 -75 -39 -67 -47 3 -3 22 -9 43 -13 82 -18
218 -79 318 -145 120 -78 247 -205 341 -340 26 -38 114 -219 114 -237 1 -26
35 -113 45 -113 6 0 18 27 29 60 100 324 340 591 656 728 96 41 112 47 133 47
43 0 51 15 21 39 -14 11 -35 21 -45 21 -17 0 -33 6 -124 45 -16 7 -37 16 -45
19 -8 3 -28 15 -45 26 -16 11 -37 23 -45 27 -35 16 -169 121 -217 170 -72 74
-176 222 -223 317 -43 90 -80 191 -80 218 0 10 -7 18 -15 18 -8 0 -15 -8 -15
-18z"/>
<path d="M3348 5138 c-50 -88 -174 -214 -241 -246 -62 -31 -85 -72 -40 -72 22
0 121 -69 173 -120 46 -45 140 -179 140 -199 0 -26 27 -7 44 32 38 84 130 188
219 248 32 21 65 39 72 39 33 0 27 45 -7 56 -81 25 -237 181 -287 287 -13 26
-24 47 -26 47 -2 0 -23 -33 -47 -72z"/>
<path d="M2786 4358 c-5 -15 -29 -97 -52 -178 -9 -30 -22 -70 -30 -88 -8 -18
-14 -39 -14 -47 0 -8 -7 -31 -16 -52 -9 -21 -24 -54 -32 -73 -8 -19 -19 -42
-24 -50 -4 -8 -11 -22 -14 -30 -3 -8 -9 -22 -14 -30 -5 -8 -21 -37 -35 -65
-14 -27 -35 -63 -45 -80 -11 -16 -23 -37 -27 -45 -18 -39 -152 -224 -213 -294
-108 -127 -175 -195 -260 -266 -35 -30 -73 -63 -85 -73 -11 -10 -71 -52 -132
-93 -135 -89 -303 -176 -473 -244 -30 -12 -70 -28 -88 -36 -18 -8 -40 -14 -48
-14 -9 0 -37 -7 -63 -15 -25 -8 -65 -19 -88 -25 -54 -14 -57 -37 -6 -45 21 -4
52 -11 68 -17 17 -6 46 -14 65 -18 82 -19 199 -65 345 -136 180 -87 346 -196
510 -334 244 -204 437 -451 569 -725 80 -166 94 -199 146 -345 6 -19 16 -53
21 -75 27 -118 36 -150 45 -150 5 0 10 11 12 25 2 14 9 45 17 70 7 25 21 72
31 105 43 153 120 335 193 456 11 19 25 43 31 54 6 11 19 34 30 50 11 17 23
37 27 45 4 8 47 69 96 134 192 254 476 502 722 631 28 14 57 30 65 35 13 8 71
35 190 87 19 9 48 22 63 29 16 8 35 14 42 14 8 0 29 6 47 14 43 18 134 44 179
51 42 6 68 28 48 41 -7 4 -29 11 -48 14 -168 34 -447 144 -601 239 -19 11 -41
24 -49 28 -33 15 -214 142 -282 198 -97 78 -281 262 -351 350 -55 70 -138 188
-151 215 -4 8 -16 29 -27 45 -37 58 -180 356 -180 376 0 6 -6 23 -14 37 -8 15
-22 54 -31 87 -10 33 -24 80 -31 104 -8 25 -14 59 -14 77 0 34 -17 56 -24 32z"/>
<path d="M4603 4342 c-6 -4 -15 -21 -19 -37 -16 -67 -97 -214 -154 -279 -141
-162 -250 -241 -418 -301 -35 -12 -63 -26 -63 -31 0 -5 26 -18 58 -30 85 -30
118 -47 213 -108 64 -41 216 -191 258 -256 49 -74 97 -175 107 -223 10 -49 54
-45 55 5 0 24 57 140 104 211 62 96 209 240 276 270 8 4 29 16 45 27 17 11 37
23 45 26 8 3 29 12 45 19 17 7 53 22 80 34 51 20 61 34 28 39 -20 3 -80 26
-133 51 -145 67 -329 232 -410 368 -28 46 -50 89 -50 96 0 7 -7 22 -15 33 -8
10 -15 28 -15 40 0 28 -22 55 -37 46z"/>
<path d="M4104 1773 c-13 -53 -73 -150 -130 -209 -72 -75 -186 -148 -254 -164
-14 -3 -23 -10 -22 -15 4 -9 45 -34 82 -50 54 -22 152 -98 207 -160 42 -47
102 -148 117 -197 9 -28 25 -21 43 20 30 64 99 165 144 211 43 43 169 131 188
131 18 0 71 35 68 45 -2 6 -13 11 -25 13 -12 2 -41 14 -64 27 -24 14 -52 29
-63 34 -62 28 -200 192 -237 282 -8 18 -22 40 -31 47 -14 12 -17 10 -23 -15z"/>
</g>
</svg>
